<svg width="521" height="152" viewBox="0 0 521 152" fill="none" xmlns="http://www.w3.org/2000/svg">
<path d="M239 127.62C244.349 129.152 256.019 125.025 254.6 136.255C254.277 138.806 251.882 139.92 249.773 141.263C249.793 144.002 255.62 149.501 254.472 151.49C252.778 151.798 252.037 151.14 251.136 149.952C249.399 147.058 247.824 144.451 246.294 141.436L241.615 141.358C241.627 143.585 242.061 150.421 240.503 151.935L239.745 151.784C239.546 151.517 239.299 151.189 239.004 150.797C238.526 145.923 238.394 131.87 239 127.62ZM241.531 139.006C244.719 138.914 247.294 139.095 250.279 138.055C255.772 130.537 246.533 130.217 241.423 130.193C241.563 133.305 241.611 135.895 241.531 139.006Z" fill="#343434"/>
<path d="M220.923 134.916C221.71 132.378 222.174 129.347 224.488 128.118C227.704 128.268 228.329 132.59 229.144 135.159C230.429 137.59 235.034 149.697 233.918 151.581C231.152 152.319 230.137 146.473 229.465 144.316C226.353 144.325 223.593 144.348 220.475 144.091C219.823 146.207 218.735 150.897 216.919 151.969L216.302 151.815L215.75 150.869C215.854 147.624 219.577 138.504 220.923 134.916ZM222.871 136.548L221.316 141.825C223.648 141.743 226.381 141.831 228.744 141.852L226.81 135.873L225.105 129.141L222.871 136.548Z" fill="#343434"/>
<path d="M220.923 134.916C221.71 132.378 222.174 129.347 224.488 128.118C227.704 128.268 228.329 132.59 229.144 135.159C228.528 135.364 227.403 135.782 226.81 135.873L225.105 129.141L222.871 136.548C221.816 135.962 221.69 135.791 220.923 134.916Z" fill="#010102"/>
<path d="M290.726 127.407C291.276 127.516 292.667 127.847 293.037 128.693C295.955 135.359 299.111 143.889 300.741 150.891C300.829 151.27 300.096 151.576 299.685 151.82C297.812 151.585 297.708 148.769 296.915 147.191C295.409 144.19 295.975 144.407 292.718 144.276C290.797 144.349 288.848 144.219 286.927 144.13C286.238 146.275 285.205 151.729 282.599 151.51L282.129 150.762C282.463 147.401 288.506 129.819 290.726 127.407ZM287.704 141.846L292.718 141.758C294.042 141.845 293.926 142.044 294.835 141.468C294.492 139.777 291.965 131.153 291.128 130.181L287.704 141.846Z" fill="#343434"/>
<path d="M261.494 127C263.687 128.395 263.105 134.953 263.101 137.469L274.954 137.535C274.707 134.27 274.049 129.936 276.241 127.415L276.795 127.435C278.521 129.957 277.768 147.096 277.365 151.11C277.317 151.591 275.811 151.874 275.368 152C274.436 149.855 274.767 142.953 274.799 140.339C271.072 140.427 267.023 140.299 263.276 140.249C263.459 143.402 263.443 146.99 263.2 150.181C263.133 151.087 262.666 151.203 261.989 151.624L261.136 151.407C259.617 149.697 260.506 131.918 260.594 128.79C260.606 128.334 261.184 127.414 261.494 127Z" fill="#343434"/>
<path d="M301.331 127.896C306.25 127.886 313.786 127.543 318.45 128.003C319.195 128.736 318.956 128.637 318.988 129.968L318.454 130.478C316.596 130.873 313.623 130.538 311.622 130.402L311.666 144.78C311.638 146.728 311.969 150.344 310.953 151.594C309.733 151.835 310.207 151.904 309.159 151.387C308.179 149.313 308.641 133.582 308.673 130.334C306.441 130.446 303.392 130.877 301.459 130.085C300.825 129.035 301 129.377 301.331 127.896Z" fill="#343434"/>
<path d="M201.216 127.807L205.47 127.877C206.948 130.411 206.914 130.238 209.925 130.53C208.005 130.568 206.038 130.451 204.116 130.369L204.19 138.689C207.316 138.545 210.202 138.099 213.003 139.41L213.129 139.982C210.975 141.487 206.837 141.001 204.108 140.898C204.175 143.298 204.966 150.608 202.757 151.666L202.117 151.29C200.395 148.282 201.163 132.217 201.216 127.807Z" fill="#343434"/>
<path d="M205.47 127.877C207.826 127.835 212.544 127.575 214.621 128.128C215.346 129.227 215.327 128.843 215.207 129.963C213.99 130.932 211.518 130.61 209.925 130.53C206.914 130.238 206.948 130.411 205.47 127.877Z" fill="#010102"/>
<path d="M272.471 98.2069C274.779 97.0579 277.119 97.3135 278.348 94.2878C278.898 92.9369 278.981 91.6616 278.985 90.2222C279.058 62.5167 278.929 34.8066 279.016 7.10136C279.02 5.98163 278.842 5.15263 278.546 4.09314C277.892 1.77117 274.894 2.45359 274.25 0.403193C274.403 0.325202 296.758 0.374644 299.017 0.371859L298.961 21.0415C298.948 28.537 298.109 36.279 302.593 42.7049C303.835 44.3058 304.267 44.6686 305.81 45.9359C309.789 48.3014 311.296 48.7788 315.826 49.7363C312.936 50.3205 311.321 50.7881 308.553 51.8357C307.32 52.609 305.642 53.5794 304.598 54.5334C301.075 58.0047 298.742 62.6326 299.129 67.6957C298.84 70.721 298.923 76.2159 299.031 79.3669C298.955 85.5988 299.017 91.9913 299.014 98.2351C290.871 98.5738 280.729 98.3072 272.471 98.2069Z" fill="#343434"/>
<path d="M453.691 0.436616L478.068 0.369415L478.071 98.2361C475.906 98.2911 473.664 98.2821 471.491 98.3033C465.514 98.2883 457.942 98.5237 452.117 98.1195C452.357 98.0377 452.598 97.9531 452.838 97.8657C454.989 97.0739 456.518 96.2038 457.489 94.0424C457.99 92.9303 457.966 91.6988 458.008 90.499C458.293 82.1752 458.495 6.63584 457.545 4.30795C456.706 2.25895 455.271 1.60717 453.371 0.776082L453.691 0.436616Z" fill="#343434"/>
<path d="M41.3571 0.302917C41.9747 1.55042 44.3895 7.39312 44.7414 7.92792C46.5824 13.0422 50.1151 20.7512 52.2864 25.8968C49.7102 32.9968 45.2459 42.653 42.2219 49.7651L21.656 98.2786C14.7122 98.4314 6.95105 98.3576 0 98.2375C4.32361 86.948 10.0833 74.1996 14.8397 62.9665L41.3571 0.302917Z" fill="#343434"/>
<path d="M405.842 0.1633C409.403 8.80566 413.052 17.4132 416.781 25.9845C406.315 49.1802 395.961 74.6094 386.015 98.1794L364.305 98.1606C365.927 94.0748 367.734 89.849 369.503 85.8119C381.921 57.4716 393.215 28.3894 405.842 0.1633Z" fill="#343434"/>
<path d="M155.341 0.512512C156.178 1.2395 165.362 23.516 166.387 25.94C159.771 42.8184 151.677 59.6515 144.89 76.5205C142.092 83.4743 138.867 91.405 135.641 98.1442C132.36 98.1912 129.004 98.1633 125.716 98.171L113.945 98.2215L155.341 0.512512Z" fill="#343434"/>
<path d="M72.2649 0.507996C72.7642 1.20051 75.3321 7.36353 75.7739 8.40909L83.1674 25.8763C79.9193 34.2885 75.627 43.7612 72.0721 52.1369L52.4472 98.2803C49.1433 98.3482 45.6496 98.2967 42.3304 98.2985L30.7661 98.2636L57.9861 33.9772C62.3059 23.7629 67.5438 10.3167 72.2649 0.507996Z" fill="#343434"/>
<path d="M221.193 0.722483C222.077 0.621861 222.411 0.546652 223.308 0.752075C223.156 1.74507 220.634 4.70733 220.492 5.31141C217.915 17.3161 218.384 31.5825 220.398 43.6892C220.956 47.0404 224.166 48.3822 224.483 49.0542C222.109 50.0653 213.238 46.4471 210.768 45.2246C187.038 32.3109 196.662 3.94204 221.193 0.722483Z" fill="#343434"/>
<path d="M240.8 49.3929C265.334 51.4266 279.336 75.9192 257.149 92.6069C251.165 96.4329 247.234 97.2522 240.483 98.1383C246.465 94.1639 246.517 84.3067 246.339 77.7336C246.123 69.7809 247.944 54.517 240.8 49.3929Z" fill="#343434"/>
<path d="M101.035 68.2371C104.502 76.1842 110.981 90.4993 113.678 98.405L96.0292 98.397C94.0277 98.3987 89.1102 98.2838 87.4203 98.4593L85.8516 97.7159C100.614 95.1589 102.09 80.6645 101.035 68.2371Z" fill="#7A7A7A"/>
<path d="M184.343 69.1044C185.431 70.095 195.582 95.073 196.91 98.4001L180.784 98.4078C176.594 98.4325 171.746 98.5651 167.631 98.2117C183.385 94.6081 185.253 83.7698 184.343 69.1044Z" fill="#646464"/>
<path d="M434.609 68.7904C435.416 69.9801 438.31 76.954 439.03 78.714C441.68 85.1866 444.733 91.8597 447.194 98.3729C441.986 98.5132 436.297 98.4039 431.051 98.4078C426.567 98.4342 422.197 98.4931 417.717 98.266C433.878 94.9079 435.521 83.3928 434.609 68.7904Z" fill="#646464"/>
<path d="M240.846 0C248.178 0.656307 260.53 0.0988809 268.238 0.208556C268.231 6.74865 267.834 18.5281 268.266 24.6305L267.517 24.9282C266.943 18.2645 263.729 12.1067 258.591 7.82555C251.732 2.05736 248.014 2.59807 240.846 0Z" fill="#969696"/>
<path d="M519.306 75.021C519.473 72.9131 519.608 70.4397 519.911 68.3764C520.218 71.1743 520.754 80.3369 519.943 82.9736C519.664 86.9469 519.897 94.0995 519.897 98.3162C511.591 98.3392 501.728 98.6013 493.546 98.2062C506.776 95.0931 516.802 89.436 519.306 75.021Z" fill="#848484"/>
<path d="M359.74 0.0557251C359.246 0.787238 358.386 0.868712 357.408 1.07344C349.822 2.83032 342.361 6.47117 338.242 13.4162C336.693 15.2887 335.099 19.3317 334.483 21.6648L334.27 23.6225L333.932 23.8039L333.274 23.3395L333.396 20.0357C333.536 13.4266 333.574 6.81587 333.511 0.205442C342.069 0.208576 351.235 0.35794 359.74 0.0557251Z" fill="#7A7A7A"/>
<path d="M333.699 73.6053C335.339 77.4923 334.914 80.4232 338.295 85.4655C343.402 93.0877 350.233 96.0593 358.964 97.9475C353.913 98.6498 339.399 98.3162 333.546 98.2984C333.567 90.443 333.306 81.3271 333.699 73.6053Z" fill="#343434"/>
<path d="M197.459 72.8867C199.413 87.0493 206.086 92.4676 218.82 97.1404C220.155 97.3841 221.508 97.6011 222.809 97.9802C216.553 98.5815 208.813 98.3782 202.479 98.3078L197.245 98.351C197.194 90.3277 197.054 80.8132 197.459 72.8867Z" fill="#343434"/>
</svg>
